HIERARCHY
ROOT root     
{
	OFFSET 0.0000 0.0000 0.0000
	CHANNELS 6 Xposition Yposition Zposition Zrotation Yrotation Xrotation
	JOINT pelvis   
	{
		OFFSET 0.0000 0.0000 0.0000
		CHANNELS 3 Zrotation Yrotation Xrotation
		JOINT thorax   
		{
			OFFSET 0.0000 23.0750 -5.0000
			CHANNELS 3 Zrotation Yrotation Xrotation
			JOINT rclavicle
			{
				OFFSET 0.0000 28.0009 0.0000
				CHANNELS 3 Zrotation Yrotation Xrotation
				JOINT rhumerus 
				{
					OFFSET -18.5725 5.5939 0.0000
					CHANNELS 3 Zrotation Yrotation Xrotation
					JOINT rradius  
					{
						OFFSET -24.8459 0.0000 0.0000
						CHANNELS 3 Zrotation Yrotation Xrotation
						JOINT rhand    
						{
							OFFSET -24.5477 0.0000 0.0000
							CHANNELS 3 Zrotation Yrotation Xrotation
							End Site
							{
								OFFSET -8.1826 0.0000 0.0000
							}
						}
					}
				}
			}
			JOINT lclavicle
			{
				OFFSET 0.0000 28.0009 0.0000
				CHANNELS 3 Zrotation Yrotation Xrotation
				JOINT lhumerus 
				{
					OFFSET 18.5725 5.5939 0.0000
					CHANNELS 3 Zrotation Yrotation Xrotation
					JOINT lradius  
					{
						OFFSET 24.8459 0.0000 0.0000
						CHANNELS 3 Zrotation Yrotation Xrotation
						JOINT lhand    
						{
							OFFSET 24.5477 0.0000 0.0000
							CHANNELS 3 Zrotation Yrotation Xrotation
							End Site
							{
								OFFSET 8.1826 0.0000 0.0000
							}
						}
					}
				}
			}
			JOINT head     
			{
				OFFSET 0.0000 35.2030 0.0000
				CHANNELS 3 Zrotation Yrotation Xrotation
				End Site
				{
					OFFSET 0.0000 11.7343 0.0000
				}
			}
		}
		JOINT rfemur   
		{
			OFFSET -8.2817 0.0000 0.0000
			CHANNELS 3 Zrotation Yrotation Xrotation
			JOINT rtibia   
			{
				OFFSET 0.0000 -43.3627 0.0000
				CHANNELS 3 Zrotation Yrotation Xrotation
				JOINT rfoot    
				{
					OFFSET 0.0000 -38.2947 0.0000
					CHANNELS 3 Zrotation Yrotation Xrotation
					JOINT rtoes    
					{
						OFFSET 0.0000 0.0000 16.6054
						CHANNELS 3 Zrotation Yrotation Xrotation
						End Site
						{
							OFFSET 0.0000 0.0000 5.5351
						}
					}
				}
			}
		}
		JOINT lfemur   
		{
			OFFSET 8.2817 0.0000 0.0000
			CHANNELS 3 Zrotation Yrotation Xrotation
			JOINT ltibia   
			{
				OFFSET 0.0000 -43.3627 0.0000
				CHANNELS 3 Zrotation Yrotation Xrotation
				JOINT lfoot    
				{
					OFFSET 0.0000 -38.2947 0.0000
					CHANNELS 3 Zrotation Yrotation Xrotation
					JOINT ltoes    
					{
						OFFSET 0.0000 0.0000 16.6054
						CHANNELS 3 Zrotation Yrotation Xrotation
						End Site
						{
							OFFSET 0.0000 0.0000 5.5351
						}
					}
				}
			}
		}
	}
}
MOTION
Frames: 15
Frame Time: .0333333
17.918 103.23 8.4931 27.1715 -85.8389 4.36601 0 -0 0 0.165799 -6.26923 -2.39779 10.9974 -10.1281 4.91912e-06 24.7001 14.6353 -60.804 -0 86.3785 -0 -49.1693 17.3975 -8.00815 -11.7618 15.1952 2.02817e-05 -26.2833 -9.31565 -53.8606 -180 -73.125 180 52.5641 -5.95062 -2.94067 0.395909 -2.43783 -4.12677 5.00581 -19.2532 -45.7742 -0 -0 8.77809 -1.19425e-05 3.51762 28.693 1.69055 2.57061e-05 -80.9016 -13.0645 12.0647 -48.2702 -0 -0 7.40576 8.44096e-06 -2.691 36.3302 -1.59501 -1.6971e-06 -67.9705 
17.084 102.49 8.3847 25.8164 -85.9526 5.88531 0 -0 0 0.197105 -6.15069 -2.16036 11.1406 -9.92886 -1.12985e-06 24.9474 14.6419 -60.3372 -2.21999e-06 86.2333 -2.37099e-06 -49.0355 17.4056 -7.98733 -12.0464 15.1191 -4.76265e-05 -26.6472 -9.66459 -53.4638 180 -72.8098 180 52.3576 -6.15114 -3.02612 0.442598 -2.50264 -4.51951 5.09882 -18.8647 -46.813 -0 -0 8.73929 -7.84692e-06 3.352 29.0151 1.62731 2.76106e-05 -81.0546 -13.8203 12.2948 -49.5104 -0 -0 7.00969 -3.36893e-06 -3.25138 36.5498 -1.93756 4.29621e-05 -68.5533 
16.258 101.68 8.269 24.3413 -86.0476 7.54192 0 -0 0 0.2131 -6.02427 -1.92624 11.3335 -9.6854 -2.45983e-07 25.2703 14.6362 -59.8006 -0 86.0414 -0 -48.8554 17.4901 -7.99339 -12.3509 15.0164 -3.84385e-05 -27.0878 -10.1103 -52.9681 -180 -72.5939 180 52.1139 -6.40762 -3.13561 0.522707 -2.58881 -4.93762 5.18535 -18.4584 -47.9006 -0 -0 8.84376 -1.42188e-05 3.17341 29.3893 1.55853 5.43634e-06 -81.2159 -14.463 12.4104 -50.7981 -0 -0 6.8214 -5.35711e-05 -3.73118 36.7204 -2.23282 -1.48751e-05 -69.1375 
15.442 100.82 8.1467 22.7008 -86.156 9.36462 0 -0 0 0.214502 -5.89296 -1.69232 11.5751 -9.40693 -1.86045e-05 25.6589 14.6224 -59.2132 -3.43088e-06 85.7927 -3.69247e-06 -48.6407 17.6347 -8.0202 -12.6709 14.8874 8.85957e-06 -27.6106 -10.6671 -52.3861 180 -72.4864 180 51.8657 -6.71212 -3.26683 0.640789 -2.70009 -5.39213 5.27299 -18.0487 -49.0501 -0 -0 9.08829 1.14925e-05 3.03234 29.8745 1.51149 1.31425e-05 -81.4507 -14.9783 12.4042 -52.138 -0 -0 6.85418 1.61283e-05 -4.12244 36.8868 -2.47708 1.02216e-05 -69.8781 
14.636 99.894 8.0182 20.9686 -86.2334 11.2984 0 -0 0 0.202292 -5.75777 -1.45083 11.8603 -9.10665 -2.65547e-05 26.1087 14.6114 -58.5923 -0 85.491 -0 -48.4069 17.8147 -8.05933 -13.0035 14.7341 -5.13009e-05 -28.2171 -11.3456 -51.7346 180 -72.4966 -180 51.6404 -7.05439 -3.41657 0.799084 -2.83919 -5.89419 5.36969 -17.6526 -50.2643 -0 -0 9.47456 1.33851e-05 2.97742 30.5186 1.51298 -4.8274e-06 -81.7944 -15.3615 12.2775 -53.5362 -0 -0 7.12616 2.71537e-05 -4.42835 37.0805 -2.67345 1.29259e-06 -70.7359 
13.836 98.902 7.8848 19.1258 -86.297 13.339 0 -0 0 0.178101 -5.6182 -1.18842 12.1824 -8.79658 8.70939e-06 26.6121 14.6142 -57.9505 -2.61358e-06 85.1186 -2.39993e-06 -48.17 18.0048 -8.10178 -13.3462 14.5531 7.51019e-05 -28.9003 -12.1468 -51.0316 -180 -72.6311 180 51.4628 -7.42033 -3.57995 0.996985 -3.00689 -6.45476 5.47901 -17.2808 -51.5428 -0 -0 10.005 1.1803e-05 3.04794 31.3532 1.58693 2.20515e-05 -82.2699 -15.5975 12.0292 -54.9774 -0 -0 7.64243 -1.59038e-05 -4.63941 37.3289 -2.81717 -4.83187e-05 -71.639 
13.04 97.841 7.7484 17.255 -86.3216 15.407 0 -0 0 0.1418 -5.47095 -0.8883 12.5326 -8.48674 2.41106e-05 27.164 14.6388 -57.3018 -0 84.6827 -0 -47.9417 18.1777 -8.13687 -13.7001 14.3409 -8.19058e-05 -29.6494 -13.0612 -50.3003 180 -72.8911 180 51.3435 -7.79412 -3.75076 1.2316 -3.20225 -7.08416 5.59862 -16.9392 -52.8784 -0 -0 10.6908 -4.66812e-06 3.27383 32.3791 1.75466 -1.64817e-05 -82.8715 -15.6682 11.6592 -56.4368 -0 -0 8.39102 -4.90835e-05 -4.73135 37.6535 -2.89438 -3.47442e-06 -72.579 
12.241 96.706 7.6112 15.4168 -86.3522 17.402 0 -0 0 0.0916014 -5.31145 -0.53431 12.8999 -8.18362 4.58682e-05 27.7591 14.6935 -56.6523 -0 84.1803 -0 -47.734 18.3097 -8.15695 -14.064 14.0858 4.13372e-05 -30.4471 -14.0685 -49.5656 180 -73.2765 -180 51.2888 -8.16059 -3.92283 1.49846 -3.42206 -7.79076 5.71942 -16.6266 -54.2563 -0 -0 11.5485 1.48796e-05 3.66723 33.5563 2.02904 -5.76396e-05 -83.55 -15.5522 11.1665 -57.8789 -0 -0 9.34866 -1.53791e-05 -4.676 38.0528 -2.88605 -2.15065e-05 -73.4923 
11.437 95.491 7.476 13.7291 -86.3539 19.2162 0 -0 0 0.0212007 -5.1379 -0.114901 13.2758 -7.89304 4.40017e-05 28.3929 14.7875 -56.0046 -2.01854e-06 83.6008 -1.80477e-06 -47.5511 18.3855 -8.15604 -14.4351 13.7843 4.50208e-05 -31.273 -15.1438 -48.8511 180 -73.7766 180 51.2955 -8.5089 -4.09135 1.79357 -3.65985 -8.58295 5.82476 -16.3375 -55.6681 -0 -0 12.6088 -7.86636e-06 4.22252 34.8041 2.41301 6.53905e-05 -84.2515 -15.2411 10.5576 -59.2742 -0 -0 10.4927 4.66935e-05 -4.45446 38.4905 -2.7757 -2.7871e-05 -74.2002 
10.623 94.191 7.3449 12.2883 -86.3728 20.724 0 -0 0 -0.0750004 -4.94961 0.373801 13.6518 -7.61397 -8.7964e-06 29.0592 14.9249 -55.3595 -1.30159e-06 82.9408 -1.15037e-06 -47.3954 18.3973 -8.13149 -14.8091 13.427 2.36332e-06 -32.1047 -16.2531 -48.1848 180 -74.3928 -180 51.3481 -8.8315 -4.25183 2.11235 -3.90833 -9.46517 5.89122 -16.0586 -57.1032 -0 -0 13.9042 -4.66118e-05 4.90329 36.0029 2.88688 -8.16958e-05 -84.8835 -14.7342 9.8411 -60.5981 -0 -0 11.7987 -1.51674e-05 -4.05159 38.9114 -2.54741 4.75899e-05 -74.6601 
9.7982 92.804 7.2188 11.1379 -86.3681 21.9052 0 -0 0 -0.199904 -4.75066 0.926092 14.0197 -7.34344 -3.64859e-05 29.7528 15.1088 -54.7139 -0 82.2011 -0 -47.2597 18.3489 -8.08368 -15.1795 13.0092 7.56792e-05 -32.9208 -17.3623 -47.5895 180 -75.1026 180 51.4322 -9.12923 -4.40393 2.4495 -4.1574 -10.441 5.89562 -15.7709 -58.562 -0 -0 15.4769 -4.1489e-06 5.64379 37.004 3.40376 3.58099e-06 -85.3629 -14.0464 9.03089 -61.8474 -0 -0 13.2582 -2.45659e-05 -3.47203 39.2277 -2.19723 1.39825e-05 -74.7867 
8.965 91.325 7.099 10.3909 -86.3982 22.6263 0 -0 0 -0.366906 -4.55016 1.52144 14.3786 -7.07145 7.20531e-07 30.4675 15.3323 -54.0621 -2.15915e-06 81.3766 -1.85643e-06 -47.1373 18.2523 -8.01717 -15.5343 12.5246 8.92373e-06 -33.7031 -18.4267 -47.0843 180 -75.901 180 51.5269 -9.40778 -4.54835 2.80471 -4.39647 -11.5078 5.81514 -15.4648 -60.0586 -0 -0 17.3824 -5.80063e-05 6.36366 37.6354 3.89583 -2.01864e-05 -85.6213 -13.2166 8.14219 -63.0399 -0 -0 14.8781 1.06809e-05 -2.72925 39.3295 -1.73062 -1.27474e-05 -74.5153 
8.1266 89.756 6.983 10.0177 -86.4027 22.9631 0 -0 0 -0.568307 -4.36454 2.13711 14.7261 -6.79288 -2.33295e-05 31.1995 15.599 -53.4015 -3.43035e-06 80.4655 -3.58715e-06 -47.0161 18.1319 -7.94071 -15.8648 11.9827 -7.92977e-05 -34.4331 -19.4211 -46.6785 -180 -76.7862 180 51.6164 -9.68179 -4.69054 3.1718 -4.61367 -12.6649 5.64838 -15.1324 -61.6132 -0 -0 19.6684 3.37786e-06 6.96304 37.7394 4.2751 -3.06086e-05 -85.6167 -12.292 7.20195 -64.2203 -0 -0 16.6941 3.20459e-06 -1.86417 39.0902 -1.17572 -2.83683e-06 -73.8041 
7.2876 88.097 6.8688 10.0269 -86.4249 22.8963 0 -0 0 -0.806093 -4.21461 2.74453 15.0618 -6.49805 1.94797e-06 31.9475 15.9023 -52.7279 -1.79603e-06 79.4706 -1.49291e-06 -46.8836 18.0165 -7.8646 -16.1575 11.3873 -3.09791e-05 -35.1037 -20.313 -46.3757 180 -77.7512 180 51.6883 -9.96689 -4.83706 3.54901 -4.79898 -13.9054 5.39988 -14.7795 -63.2538 -0 -0 22.3855 5.90024e-05 7.36113 37.1702 4.46306 4.21663e-05 -85.3234 -11.3327 6.23499 -65.4407 -0 -0 18.7619 6.85354e-08 -0.922298 38.3838 -0.572689 -2.49374e-06 -72.6309 
6.4521 86.35 6.7531 10.4302 -86.4427 22.4331 0 -0 0 -1.07699 -4.12581 3.31893 15.3881 -6.18127 -1.9359e-06 32.714 16.2387 -52.0367 -0 78.3825 -0 -46.7314 17.9408 -7.8028 -16.3977 10.7545 9.13773e-05 -35.708 -21.0825 -46.168 -180 -78.8046 180 51.738 -10.2773 -4.99373 3.93384 -4.94322 -15.2222 5.09052 -14.4248 -65.0126 -0 -0 25.5753 -1.42997e-05 7.50731 35.8206 4.41031 -1.11177e-05 -84.6976 -10.4018 5.26788 -66.7651 -0 -0 21.1532 1.24538e-07 0.0409997 37.1022 0.0247007 3.79115e-07 -71.0146 
